PathFileType	4	(X/Y/Z)	s05c0401.trc
DataRate	CameraRate	NumFrames	NumMarkers	Units	OrigDataRate	OrigDataStartFrame	OrigNumFrames
200	200	4	50	mm	200	750	2000
Frame#	Time	racr			lacr			c7			jug			rlel			rdr			llel			ldr			s2			lic			ric			lasi			rasi			rpsi			lpsi			rgt			lgt			rth1			rth2			rth3			rth4			rlfc			rmfc			rsh1			rsh2			rsh3			rsh4			rlmal			rmmal			rcal			rtoe			rmt5			lth1			lth2			lth4			lth3			llfc			lmfc			lsh1			lsh2			lsh3			lsh4			llmal			lmmal			lcal			ltoe			lmt5			SBIKE			LBIKE			RBIKE			
		X1	Y1	Z1	X2	Y2	Z2	X3	Y3	Z3	X4	Y4	Z4	X5	Y5	Z5	X6	Y6	Z6	X7	Y7	Z7	X8	Y8	Z8	X9	Y9	Z9	X10	Y10	Z10	X11	Y11	Z11	X12	Y12	Z12	X13	Y13	Z13	X14	Y14	Z14	X15	Y15	Z15	X16	Y16	Z16	X17	Y17	Z17	X18	Y18	Z18	X19	Y19	Z19	X20	Y20	Z20	X21	Y21	Z21	X22	Y22	Z22	X23	Y23	Z23	X24	Y24	Z24	X25	Y25	Z25	X26	Y26	Z26	X27	Y27	Z27	X28	Y28	Z28	X29	Y29	Z29	X30	Y30	Z30	X31	Y31	Z31	X32	Y32	Z32	X33	Y33	Z33	X34	Y34	Z34	X35	Y35	Z35	X36	Y36	Z36	X37	Y37	Z37	X38	Y38	Z38	X39	Y39	Z39	X40	Y40	Z40	X41	Y41	Z41	X42	Y42	Z42	X43	Y43	Z43	X44	Y44	Z44	X45	Y45	Z45	X46	Y46	Z46	X47	Y47	Z47	X48	Y48	Z48	X49	Y49	Z49	X50	Y50	Z50	
750	3.7500	748.278180	1295.989112	-94.444352	749.768603	1308.164820	-419.329719	741.175189	1411.118762	-256.099495	697.543852	1242.803359	-260.689994	541.877067	1119.927187	39.970314	678.851491	967.842642	-72.749459	529.148856	1155.153471	-598.979304	671.293140	966.762144	-516.085564	168.548536	1275.736466	-266.254642	314.631818	1283.135610	-399.047518	311.895855	1241.083265	-119.557214	350.582679	1216.303707	-373.792213	338.461195	1176.328682	-156.740429	212.622950	1308.742084	-214.951393	215.366407	1324.850480	-300.000393	220.585578	1118.270076	-120.535668	244.332256	1197.573035	-445.446526	245.711206	1005.339494	-101.721850	278.345491	922.440153	-101.651511	265.245172	835.337655	-109.588619	314.979499	927.687665	-108.688129	294.569043	687.117208	-131.549147	279.863670	689.231726	-239.693822	215.250790	613.671331	-102.417166	187.201282	530.202992	-114.877245	125.692365	470.980080	-116.291698	212.899797	517.090912	-140.569946	55.949284	352.656584	-124.094060	80.448310	358.185639	-207.054595	-15.746671	366.655647	-174.129133	191.079209	153.913570	-152.017333	97.588966	206.433745	-94.696685	331.333019	1087.788892	-459.608437	408.891029	1051.034119	-452.953536	431.291940	1075.866119	-434.674625	457.788715	974.521761	-448.888906	548.470366	854.932936	-414.529715	529.285548	846.214554	-303.323433	451.779004	774.228709	-437.290017	405.975650	700.410394	-428.453162	328.076240	657.792458	-431.569185	427.615930	679.097803	-405.050820	240.995764	568.975256	-427.730588	270.865773	576.234261	-347.445399	167.200868	548.641218	-386.772881	436.890185	434.162990	-409.544223	324.201779	448.231705	-467.744499	-220.246571	912.622888	-275.965056	-53.528300	79.121970	-475.357800	-53.512634	79.344190	-77.650328	
751	3.7550	748.804511	1295.223700	-96.559689	749.519882	1307.108309	-421.650269	741.883302	1410.304299	-258.520665	697.688318	1241.917483	-262.744324	542.285097	1120.495644	39.561573	678.857358	967.916546	-72.834565	527.798666	1153.924153	-599.728973	671.094441	966.685699	-516.405355	169.036763	1277.138937	-266.244323	314.649951	1283.658375	-399.568339	312.696683	1242.453072	-119.860115	350.741858	1217.151292	-374.006386	338.987621	1177.571733	-157.066999	213.927398	1309.579197	-215.639510	215.988999	1326.161511	-300.625601	221.851136	1119.589962	-120.213224	244.070987	1198.121091	-445.350572	248.843283	1006.689119	-101.666092	282.578870	924.193785	-102.229249	270.519818	836.986017	-109.827863	318.960891	929.938016	-109.596924	299.776658	688.768341	-131.225966	284.755392	690.842063	-239.372658	218.868245	616.557134	-101.851764	189.230844	533.612161	-114.263046	126.471531	475.676662	-115.583443	214.563589	520.023619	-140.056811	54.065932	358.654834	-123.417879	78.913935	364.076348	-206.393093	-17.406364	374.165521	-173.411107	185.700277	157.678099	-152.282384	93.319149	211.689429	-94.743218	330.302384	1086.835611	-460.117086	407.029537	1049.241901	-454.400256	430.170993	1073.364302	-435.357937	455.080154	971.707772	-449.892710	543.422015	850.568117	-415.135766	524.680871	842.167441	-304.081737	447.394344	768.411551	-437.916485	403.253679	693.576181	-428.278301	326.136798	649.437764	-431.039997	425.265699	673.050170	-404.299043	241.282756	560.063401	-427.218892	270.934675	568.146116	-346.851053	167.373551	537.973586	-385.877548	440.980343	431.457215	-410.072042	327.652972	442.107362	-467.862292	-220.210954	912.598756	-276.115757	-53.555969	79.069416	-475.359229	-53.541931	79.336604	-77.637487	
752	3.7600	749.345469	1294.453406	-98.585726	749.323966	1306.089204	-423.956634	742.672850	1409.573290	-260.726989	697.910739	1241.280836	-264.702465	542.627814	1121.092864	39.129379	678.784852	967.943449	-72.860443	526.658463	1152.847199	-600.804286	670.907067	966.632461	-516.624810	169.491313	1278.259318	-266.014568	314.611660	1283.974639	-400.075912	313.437094	1243.748341	-120.089882	350.886035	1217.713186	-374.194475	339.530662	1178.674766	-157.433588	214.296389	1310.956370	-215.393540	216.407397	1327.034066	-300.675509	223.295484	1120.717749	-119.768535	243.741737	1198.409336	-445.228475	252.146110	1007.945608	-101.783553	286.951668	925.910224	-102.754312	275.911050	838.616356	-109.934584	323.132590	932.091227	-110.449014	305.066794	690.409545	-130.906109	289.986710	692.275006	-239.088232	222.799505	619.457712	-101.434814	191.454467	537.122342	-113.539910	127.443844	480.485858	-114.758300	216.279014	522.963061	-139.561691	52.456315	364.930601	-122.556562	77.295190	370.453205	-205.527968	-18.867402	381.815074	-172.588881	180.711270	161.946012	-152.371800	89.122253	217.201219	-94.684100	329.280054	1085.782571	-460.499003	405.428669	1047.072836	-454.727349	428.963147	1070.920083	-435.963455	452.088052	968.705520	-449.733499	538.512729	846.208402	-415.639508	520.158772	838.189224	-304.722069	443.252377	762.378283	-438.179699	400.806261	686.446459	-427.947853	324.413915	641.099019	-430.558890	423.075260	666.744672	-403.953260	241.660392	551.284500	-426.636217	271.358780	559.830282	-346.392913	168.745765	526.722454	-384.843678	444.883960	428.080331	-410.614435	331.067187	435.751273	-467.972185	-220.191523	912.586488	-276.125629	-53.551213	79.066233	-475.333953	-53.522950	79.336321	-77.632570	
753	3.7650	749.857971	1293.834866	-100.520783	749.166919	1305.151318	-426.229768	743.403587	1408.881444	-262.984626	698.261031	1240.474557	-266.726400	542.959007	1121.779376	38.781253	678.662559	967.907923	-72.875642	525.607354	1151.809349	-601.896110	670.506656	966.538280	-516.942570	169.962495	1279.199820	-265.830127	314.558996	1284.048739	-400.571594	314.197204	1244.841491	-120.287413	350.951871	1218.038747	-374.412753	340.091394	1179.650767	-157.707358	214.547273	1312.415596	-214.788671	216.870118	1327.649607	-301.156445	224.814656	1121.589942	-119.193164	243.345926	1198.527261	-445.109054	255.706413	1009.053811	-102.017652	291.507930	927.555877	-103.233480	281.615885	840.093083	-110.000574	327.736669	934.331138	-111.080331	310.503409	692.018501	-130.543377	295.511819	693.575610	-238.859646	227.280742	622.042507	-100.838231	193.873546	540.661016	-112.822607	128.538397	485.455856	-113.848444	218.233236	526.081023	-138.978023	50.889341	371.191788	-121.610308	76.173863	376.806093	-204.661457	-20.193046	389.784573	-171.573313	175.794369	166.533848	-152.408419	85.120980	222.898624	-94.543799	328.271621	1084.607149	-460.737603	403.843919	1044.831870	-454.945556	427.767498	1068.436080	-436.280354	449.386254	965.755644	-449.950538	533.825244	842.050945	-416.193915	515.740271	834.121004	-305.291024	439.346237	756.391591	-438.556429	398.472249	679.691391	-427.933107	323.034387	632.678873	-430.309290	421.574579	660.249404	-404.015091	242.401647	542.374362	-426.337151	272.095212	551.563964	-346.111958	170.170722	516.024252	-384.275037	448.591544	424.133343	-410.936568	334.494077	429.093115	-467.951146	-220.156908	912.603726	-276.098726	-53.560206	79.050487	-475.333204	-53.526741	79.318401	-77.653570	
